<svg width="1600" height="900" viewBox="0 0 1600 900" fill="none" xmlns="http://www.w3.org/2000/svg">
  <rect width="1600" height="900" fill="#FFF8F2"/>
  <text x="80" y="90" font-size="40" font-family="Arial" font-weight="700" fill="#2B2B2B">Free Cake 总体业务架构</text>
  <text x="80" y="130" font-size="20" font-family="Arial" fill="#6B7280">云端 B 端统管 + 村镇 C 端执行</text>

  <rect x="70" y="200" width="260" height="460" rx="24" fill="#FFE3D2" stroke="#F5A97F" stroke-width="2"/>
  <text x="110" y="255" font-size="32" font-family="Arial" font-weight="700" fill="#9A3412">用户触达层</text>
  <rect x="100" y="300" width="200" height="70" rx="16" fill="#FFF"/>
  <text x="145" y="343" font-size="24" font-family="Arial" fill="#374151">H5 活动页</text>
  <rect x="100" y="390" width="200" height="70" rx="16" fill="#FFF"/>
  <text x="125" y="433" font-size="24" font-family="Arial" fill="#374151">微信小程序</text>
  <rect x="100" y="480" width="200" height="70" rx="16" fill="#FFF"/>
  <text x="125" y="523" font-size="24" font-family="Arial" fill="#374151">门店核销端</text>

  <rect x="390" y="150" width="490" height="560" rx="24" fill="#EEF2FF" stroke="#818CF8" stroke-width="2"/>
  <text x="430" y="205" font-size="32" font-family="Arial" font-weight="700" fill="#3730A3">云端业务应用层</text>
  <g font-family="Arial" font-size="22" fill="#1F2937">
    <rect x="430" y="245" width="180" height="64" rx="14" fill="#FFF"/><text x="480" y="285">活动中心</text>
    <rect x="640" y="245" width="180" height="64" rx="14" fill="#FFF"/><text x="685" y="285">AI 设计</text>
    <rect x="430" y="330" width="180" height="64" rx="14" fill="#FFF"/><text x="480" y="370">投票中心</text>
    <rect x="640" y="330" width="180" height="64" rx="14" fill="#FFF"/><text x="665" y="370">订单履约</text>
    <rect x="430" y="415" width="180" height="64" rx="14" fill="#FFF"/><text x="480" y="455">核销中心</text>
    <rect x="640" y="415" width="180" height="64" rx="14" fill="#FFF"/><text x="665" y="455">库存供应链</text>
    <rect x="430" y="500" width="180" height="64" rx="14" fill="#FFF"/><text x="455" y="540">B 端运营中台</text>
    <rect x="640" y="500" width="180" height="64" rx="14" fill="#FFF"/><text x="700" y="540">报表中心</text>
  </g>

  <rect x="940" y="170" width="280" height="520" rx="24" fill="#ECFDF5" stroke="#34D399" stroke-width="2"/>
  <text x="980" y="225" font-size="32" font-family="Arial" font-weight="700" fill="#065F46">平台能力层</text>
  <g font-family="Arial" font-size="22" fill="#1F2937">
    <text x="990" y="290">• 用户与账号服务</text>
    <text x="990" y="340">• 区域围栏服务</text>
    <text x="990" y="390">• 风控服务</text>
    <text x="990" y="440">• 消息通知服务</text>
    <text x="990" y="490">• 文件与图片服务</text>
    <text x="990" y="540">• 任务调度服务</text>
    <text x="990" y="590">• 审计日志服务</text>
  </g>

  <rect x="1280" y="200" width="250" height="460" rx="24" fill="#F3F4F6" stroke="#9CA3AF" stroke-width="2"/>
  <text x="1320" y="255" font-size="32" font-family="Arial" font-weight="700" fill="#111827">门店执行层</text>
  <g font-family="Arial" font-size="22" fill="#1F2937">
    <rect x="1310" y="300" width="190" height="70" rx="16" fill="#FFF"/><text x="1340" y="343">门店工作台</text>
    <rect x="1310" y="390" width="190" height="70" rx="16" fill="#FFF"/><text x="1340" y="433">设备网关</text>
    <rect x="1310" y="480" width="190" height="70" rx="16" fill="#FFF"/><text x="1370" y="523">ROS2</text>
    <rect x="1310" y="570" width="190" height="70" rx="16" fill="#FFF"/><text x="1348" y="613">打印/烘烤设备</text>
  </g>

  <path d="M330 430H390" stroke="#9CA3AF" stroke-width="6" stroke-linecap="round"/>
  <path d="M880 430H940" stroke="#9CA3AF" stroke-width="6" stroke-linecap="round"/>
  <path d="M1220 430H1280" stroke="#9CA3AF" stroke-width="6" stroke-linecap="round"/>
  <text x="525" y="790" font-size="24" font-family="Arial" fill="#6B7280">活动、AI、投票、排产、核销、库存、报表统一在云端闭环</text>
</svg>
