<svg width="1024" height="1024" viewBox="0 0 1024 1024" fill="none" xmlns="http://www.w3.org/2000/svg">
  <rect width="1024" height="1024" fill="#F4FFF9"/>
  <ellipse cx="512" cy="832" rx="250" ry="44" fill="#D8E7DE"/>
  <ellipse cx="512" cy="780" rx="238" ry="58" fill="#D9FBE7"/>
  <rect x="288" y="470" width="448" height="304" rx="44" fill="#86EFAC"/>
  <rect x="312" y="500" width="400" height="236" rx="34" fill="#F0FDF4"/>
  <ellipse cx="512" cy="458" rx="238" ry="80" fill="#F7FFF9"/>
  <ellipse cx="512" cy="448" rx="223" ry="68" fill="#DCFCE7"/>
  <g fill="#4ADE80">
    <circle cx="382" cy="432" r="22"/>
    <circle cx="442" cy="402" r="22"/>
    <circle cx="512" cy="390" r="24"/>
    <circle cx="582" cy="402" r="22"/>
    <circle cx="642" cy="432" r="22"/>
  </g>
  <g fill="#22C55E">
    <path d="M420 505C445 470 492 462 512 500C480 522 448 525 420 505Z"/>
    <path d="M520 500C542 462 590 470 612 505C586 524 552 522 520 500Z"/>
  </g>
  <g fill="#F59E0B">
    <circle cx="460" cy="570" r="18"/>
    <circle cx="512" cy="610" r="18"/>
    <circle cx="564" cy="570" r="18"/>
  </g>
  <text x="395" y="715" font-size="58" font-family="Arial" font-weight="700" fill="#166534">Lucky Day</text>
  <text x="350" y="770" font-size="34" font-family="Arial" fill="#166534">Free Cake Village Edition</text>
</svg>
